<svg width="30" height="30" viewBox="0 0 30 30" fill="none" xmlns="http://www.w3.org/2000/svg">
<g id="Large/Cross">
<path id="close" fill-rule="evenodd" clip-rule="evenodd" d="M23.6607 6.33933C23.0749 5.75355 22.1251 5.75355 21.5393 6.33933L15 12.8787L8.46066 6.33933C7.87487 5.75355 6.92513 5.75355 6.33934 6.33933C5.79016 6.88851 5.75584 7.75757 6.23637 8.34673L6.33934 8.46065L12.8787 15L6.33933 21.5393L6.23636 21.6533C5.75584 22.2424 5.79016 23.1115 6.33933 23.6607C6.92512 24.2464 7.87487 24.2464 8.46065 23.6607L15 17.1213L21.5393 23.6607C22.1251 24.2464 23.0749 24.2464 23.6607 23.6607C24.2098 23.1115 24.2442 22.2424 23.7636 21.6533L23.6607 21.5393L17.1213 15L23.6607 8.46065L23.7636 8.34673C24.2442 7.75757 24.2098 6.88851 23.6607 6.33933Z" fill="black"/>
</g>
</svg>
